{
  "title": "The Blacklist S04E01 Esteban No.79 1080p WEB-DL HEVC DD5.1 x265",
  "uid": 15883824,
  "size": 745482116,
  "categoryP": "video",
  "categoryS": "hd___tv_shows",
  "magnet": "?xt=urn:btih:172ba6ca61f4b39ad992ce7c27cad227c2042fcf&amp;dn=The+Blacklist+S04E01+Esteban+No.79+1080p+WEB-DL+HEVC+DD5.1+x265&amp;tr=udp%3A%2F%2Ftracker.leechers-paradise.org%3A6969&amp;tr=udp%3A%2F%2Fzer0day.ch%3A1337&amp;tr=udp%3A%2F%2Fopen.demonii.com%3A1337&amp;tr=udp%3A%2F%2Ftracker.coppersurfer.tk%3A6969&amp;tr=udp%3A%2F%2Fexodus.desync.com%3A6969",
  "seeders": 49,
  "leechers": 4,
  "uploader": "nayhtut",
  "files": 1,
  "time": 1474633596,
  "description": "[Screenshots Gallery Link]\r\n\r\n[http://postimg.org/gallery/1x4hs2fwa]\r\n\r\nSource: The Blacklist S04E01 Esteban No.79 1080p WEB-DL DD5.1 H264-AG (1.67 GB)\r\n\r\n \r\nComplete name: The.Blacklist.S04E01.Esteban.No.79.1080p.WEB-DL.HEVC.DD5.1.x265.mkv\r\nFormat                                   : Matroska\r\nFormat version                           : Version 4 / Version 2\r\nFile size                                : 711 MiB\r\nDuration                                 : 42mn 58s\r\nOverall bit rate                         : 2 313 Kbps\r\nWriting application                      : Lavf57.25.100\r\nWriting library                          : Lavf57.25.100\r\n\r\nVideo\r\n\r\nID                                       : 1\r\nFormat                                   : V_MPEGH/ISO/HEVC\r\nCodec ID                                 : V_MPEGH/ISO/HEVC\r\nDuration                                 : 42mn 58s\r\nBit rate                                 : 1 883 Kbps\r\nWidth                                    : 1 916 pixels\r\nHeight                                   : 1 076 pixels\r\nDisplay aspect ratio                     : 16:9\r\nFrame rate                               : 25.000 fps\r\nBits/(Pixel*Frame)                       : 0.037\r\nStream size                              : 579 MiB (81%)\r\nWriting library                          : Lavc57.48.101 libx265\r\nLanguage                                 : English\r\nDefault                                  : Yes\r\nForced                                   : No\r\nDURATION                                 : 00:42:58.531000000\r\n\r\nAudio\r\n\r\nID                                       : 2\r\nFormat                                   : AC-3\r\nFormat/Info                              : Audio Coding 3\r\nMode extension                           : CM (complete main)\r\nFormat settings, Endianness              : Big\r\nCodec ID                                 : A_AC3\r\nDuration                                 : 42mn 58s\r\nBit rate mode                            : Constant\r\nBit rate                                 : 384 Kbps\r\nChannel(s)                               : 6 channels\r\nChannel positions                        : Front: L C R, Side: L R, LFE\r\nSampling rate                            : 48.0 KHz\r\nBit depth                                : 16 bits\r\nCompression mode                         : Lossy\r\nStream size                              : 118 MiB (17%)\r\nWriting library                          : Lavc57.24.102 ac3\r\nLanguage                                 : English\r\nDefault                                  : Yes\r\nForced                                   : No\r\nDURATION                                 : 00:42:58.559000000\r\n\r\nText\r\n\r\nID                                       : 3\r\nFormat                                   : ASS\r\nCodec ID                                 : S_TEXT/ASS\r\nCodec ID/Info                            : Advanced Sub Station Alpha\r\nLanguage                                 : English",
  "parsed": {
    "xt": "urn:btih:172ba6ca61f4b39ad992ce7c27cad227c2042fcf",
    "dn": "The Blacklist S04E01 Esteban No.79 1080p WEB-DL HEVC DD5.1 x265",
    "tr": [
      "udp://exodus.desync.com:6969",
      "udp://open.demonii.com:1337",
      "udp://tracker.coppersurfer.tk:6969",
      "udp://tracker.leechers-paradise.org:6969",
      "udp://zer0day.ch:1337"
    ],
    "infoHash": "172ba6ca61f4b39ad992ce7c27cad227c2042fcf",
    "infoHashBuffer": {
      "type": "Buffer",
      "data": [
        23,
        43,
        166,
        202,
        97,
        244,
        179,
        154,
        217,
        146,
        206,
        124,
        39,
        202,
        210,
        39,
        194,
        4,
        47,
        207
      ]
    },
    "name": "The Blacklist S04E01 Esteban No.79 1080p WEB-DL HEVC DD5.1 x265",
    "announce": [
      "udp://exodus.desync.com:6969",
      "udp://open.demonii.com:1337",
      "udp://tracker.coppersurfer.tk:6969",
      "udp://tracker.leechers-paradise.org:6969",
      "udp://zer0day.ch:1337"
    ],
    "urlList": []
  },
  "previous": 53,
  "peers": 26,
  "last_updated": "2016-12-24T18:13:48.796Z"
}